<svg width="17" height="17" viewBox="0 0 17 17" fill="none" xmlns="http://www.w3.org/2000/svg">
<path d="M14.9807 16.2457L9.39563 10.6676C8.95324 11.0227 8.44436 11.3039 7.86899 11.5114C7.29361 11.7188 6.68122 11.8229 6.03183 11.8236C4.42309 11.8254 3.0611 11.269 1.94587 10.1546C0.830636 9.04013 0.271843 7.67807 0.269491 6.06839C0.267728 4.45813 0.823538 3.09485 1.93692 1.97855C3.0503 0.862258 4.41107 0.302935 6.01921 0.300584C7.62795 0.298823 8.99023 0.855165 10.1061 1.96961C11.2219 3.08405 11.7804 4.44611 11.7815 6.05579C11.7823 6.70581 11.6796 7.31901 11.4736 7.89538C11.2676 8.47176 10.9878 8.98174 10.634 9.42532L16.2191 15.0034L14.9807 16.2457ZM6.02989 10.0508C7.13681 10.0496 8.07743 9.66094 8.85172 8.8848C9.62602 8.10866 10.0123 7.1663 10.0105 6.05773C10.0092 4.94975 9.62094 4.00854 8.84554 3.23409C8.07013 2.45965 7.12867 2.07273 6.02115 2.07336C4.91422 2.07457 3.97391 2.46354 3.2002 3.24027C2.4265 4.017 2.03995 4.95906 2.04058 6.06646C2.04179 7.17444 2.43039 8.11595 3.20639 8.89098C3.98238 9.66602 4.92355 10.0526 6.02989 10.0508Z" fill="#021E24" fill-opacity="0.36"/>
</svg>
